<svg xmlns="http://www.w3.org/2000/svg" width="321.909" height="69" viewBox="0 0 321.909 69">
  <g id="Groupe_1" data-name="Groupe 1" transform="translate(-425.091 -405)">
    <path id="Exclusion_1" data-name="Exclusion 1" d="M58.231,48.012H1.477C-.24,38.832-.148,28.147.231,20.8.642,12.835,1.469,6.972,1.477,6.914c0-.019.092-1.985,3.548-4.656A9.091,9.091,0,0,1,10.442,0a2.685,2.685,0,0,1,.464.032,12.941,12.941,0,0,0,1.172,3.179,9.549,9.549,0,0,0,4.869,4.609,7.735,7.735,0,0,0,2.8.5c4.04,0,7.89-2.728,7.929-2.756a4.394,4.394,0,0,0,3.164,3.053,6.362,6.362,0,0,0,1.8.262,5.862,5.862,0,0,0,2.894-.734,5.921,5.921,0,0,0-.242,2.394A5.524,5.524,0,0,0,38.142,14.8a6.2,6.2,0,0,0,3.238.93,7.659,7.659,0,0,0,3.037-.685c.334-.143.628-.288.864-.4a2.474,2.474,0,0,1,.688-.281.071.071,0,0,1,.078.046,1.6,1.6,0,0,1,.028.206,7.669,7.669,0,0,0,4.268,6.4,5.833,5.833,0,0,0,2.627.635,8.182,8.182,0,0,0,5.26-2.366c0,.006.006.044.012.109.24,2.545,1.025,11.146,1.025,14.968,0,4.336-1.026,13.559-1.037,13.652h0ZM30.751,15.644a10.257,10.257,0,0,0-1.036.053,14.171,14.171,0,0,0-4.988,1.4,14.87,14.87,0,0,0-3.961,2.935,17.413,17.413,0,0,0-3.791,6.014,16.133,16.133,0,0,0-1.111,6.869,14.007,14.007,0,0,0,2.907,7.41,14.765,14.765,0,0,0,6.213,4.845,17.73,17.73,0,0,0,4.846,1.14c.333.03.672.046,1.008.046a12.551,12.551,0,0,0,4.122-.73,10.31,10.31,0,0,0,6.782-6.213,4.55,4.55,0,0,0,.342-.742c.114-.3.229-.581.342-.826s.225-.476.342-.713a3.763,3.763,0,0,0,.257-2.964,3.629,3.629,0,0,0-1.966-2.252,4.123,4.123,0,0,0-1.795-.424,4.249,4.249,0,0,0-1.255.2A3.759,3.759,0,0,0,35.7,33.6c-.042.085-.534,1.158-1.254,2.736a4.341,4.341,0,0,1-.684,1.2,3.868,3.868,0,0,1-2.252,1.054,4.4,4.4,0,0,1-.621.042,8.14,8.14,0,0,1-2.771-.583A6.436,6.436,0,0,1,25.1,35.618a6.759,6.759,0,0,1-1.254-3.278,7.792,7.792,0,0,1,.6-3.648,10.313,10.313,0,0,1,2.138-3.363A5.285,5.285,0,0,1,30.417,23.4a4.942,4.942,0,0,1,1.864.389,6.291,6.291,0,0,1,1.026.742c1.361,1.172,2.09,1.786,2.166,1.823a3.848,3.848,0,0,0,2.416.859,4.294,4.294,0,0,0,.519-.032,3.9,3.9,0,0,0,2.65-1.482,3.681,3.681,0,0,0,.827-2.85,3.824,3.824,0,0,0-1.511-2.593L39.348,19.4c-.456-.415-.67-.614-.741-.684a12.7,12.7,0,0,0-3.249-2.052A11.419,11.419,0,0,0,30.751,15.644Z" transform="translate(425.088 409.218)" fill="#f47321"/>
    <text id="asserolon" transform="translate(488 457)" fill="#f47321" font-size="58" font-family="BalsamiqSans-Bold, Balsamiq Sans" font-weight="700"><tspan x="0" y="0">asserolon</tspan></text>
  </g>
</svg>
